<svg xmlns="http://www.w3.org/2000/svg" viewBox="0 0 22.78 22.78"><path d="M15.661,0H7.119A7.12,7.12,0,0,0,0,7.119v8.542A7.12,7.12,0,0,0,7.119,22.78h8.543a7.12,7.12,0,0,0,7.119-7.119V7.119A7.12,7.12,0,0,0,15.661,0Zm4.983,15.661a4.989,4.989,0,0,1-4.983,4.983H7.119a4.989,4.989,0,0,1-4.983-4.983V7.119A4.989,4.989,0,0,1,7.119,2.136h8.543a4.989,4.989,0,0,1,4.983,4.983Z"/><g transform="translate(5.695 5.695)"><path d="M133.7,128a5.695,5.695,0,1,0,5.7,5.695A5.7,5.7,0,0,0,133.7,128Zm0,9.254a3.559,3.559,0,1,1,3.559-3.559A3.564,3.564,0,0,1,133.7,137.254Z" transform="translate(-128 -128)"/></g><g transform="translate(16.753 4.509)"><ellipse cx="0.759" cy="0.759" rx="0.759" ry="0.759"/></g></svg>